<?xml version='1.0' encoding='utf-8'?>
<!DOCTYPE svg>
<!-- Generator: Adobe Illustrator 16.0.0, SVG Export Plug-In . SVG Version: 6.00 Build 0)  -->
<svg xmlns="http://www.w3.org/2000/svg"  version="1.1" xmlns:xml="http://www.w3.org/XML/1998/namespace" gorn="0" id="Layer_1" viewBox="0 0 51.1 43.92" x="0px" y="0px" height="0.61in" width="0.709722in" xml:space="preserve" enable-background="new 0 0 51.1 43.92">
    <desc >
        <referenceFile >sparkfun-electromechanical_relay-spdt-2_schematic.svg</referenceFile>
    </desc>
    <g  gorn="0.1" id="schematic">
        <polygon  stroke-linecap="round" stroke="#000000" points="7.55,7.56 7.55,36.36 7.55,43.56 43.55,43.56 43.55,36.36 43.55,29.16 43.55,14.76 43.55,7.56 43.55,0.36 7.55,0.36 " fill="#FFFFFF" stroke-width="0.9"/>
        <path  d="M14.754,16.92c2.585-0.199,4.519-2.455,4.319-5.04c-0.179-2.308-2.014-4.142-4.319-4.32" stroke="#000000" fill="none" stroke-width="0.5"/>
        <path  d="M14.75,12.6c-1.193-0.348-2.442,0.337-2.79,1.53c-0.351,1.193,0.337,2.442,1.527,2.79c0.412,0.12,0.851,0.12,1.263,0" stroke="#000000" fill="none" stroke-width="0.5"/>
        <path  d="M14.75,24.12c3.181-0.895,5.034-4.199,4.14-7.38c-0.563-2.007-2.133-3.576-4.14-4.14" stroke="#000000" fill="none" stroke-width="0.5"/>
        <path  d="M14.75,19.8c-1.193-0.348-2.442,0.337-2.79,1.53c-0.351,1.192,0.337,2.442,1.527,2.79c0.412,0.119,0.851,0.119,1.263,0" stroke="#000000" fill="none" stroke-width="0.5"/>
        <path  d="M14.75,31.319c3.181-0.928,5.008-4.258,4.08-7.439c-0.574-1.968-2.112-3.506-4.08-4.08" stroke="#000000" fill="none" stroke-width="0.5"/>
        <path  d="M14.75,27c-1.193-0.349-2.442,0.337-2.79,1.53c-0.351,1.191,0.337,2.441,1.527,2.789c0.412,0.121,0.851,0.121,1.263,0" stroke="#000000" fill="none" stroke-width="0.5"/>
        <path  d="M14.75,36.36c2.585-0.199,4.519-2.455,4.317-5.041c-0.177-2.309-2.012-4.143-4.317-4.319" stroke="#000000" fill="none" stroke-width="0.5"/>
        <line  stroke-linecap="round" stroke="#000000" fill="none" y1="7.56" y2="7.56" stroke-width="0.5" x1="43.55" x2="29.15"/>
        <line  stroke-linecap="round" stroke="#000000" fill="none" y1="7.56" y2="14.76" stroke-width="0.5" x1="29.15" x2="29.15"/>
        <line  stroke-linecap="round" stroke="#000000" fill="none" y1="36.36" y2="36.36" stroke-width="0.5" x1="43.55" x2="29.15"/>
        <line  stroke-linecap="round" stroke="#000000" fill="none" y1="36.36" y2="29.16" stroke-width="0.5" x1="29.15" x2="29.15"/>
        <line  stroke-linecap="round" stroke="#000000" fill="none" y1="21.96" y2="16.92" stroke-width="0.5" x1="36.35" x2="31.31"/>
        <line  stroke-linecap="round" stroke="#000000" fill="none" y1="14.76" y2="12.6" stroke-width="0.5" x1="29.15" x2="31.31"/>
        <line  stroke-linecap="round" stroke="#000000" fill="none" y1="14.76" y2="12.6" stroke-width="0.5" x1="29.15" x2="26.99"/>
        <line  stroke-linecap="round" stroke="#000000" fill="none" y1="29.16" y2="31.319" stroke-width="0.5" x1="29.15" x2="31.31"/>
        <line  stroke-linecap="round" stroke="#000000" fill="none" y1="29.16" y2="31.319" stroke-width="0.5" x1="29.15" x2="26.99"/>
        <line  stroke-linecap="round" stroke="#000000" fill="none" y1="7.56" y2="7.56" stroke-width="0.5" x1="7.55" x2="14.75"/>
        <line  stroke-linecap="round" stroke="#000000" fill="none" y1="36.36" y2="36.36" stroke-width="0.5" x1="7.55" x2="14.75"/>
        <line  stroke-linecap="round" stroke="#000000" fill="none" y1="29.16" y2="29.16" stroke-width="0.5" x1="43.55" x2="39.95"/>
        <line  stroke-linecap="round" stroke="#000000" fill="none" y1="29.16" y2="21.96" stroke-width="0.5" x1="39.95" x2="39.95"/>
        <line  stroke-linecap="round" stroke="#000000" fill="none" y1="21.96" y2="14.76" stroke-width="0.5" x1="39.95" x2="39.95"/>
        <line  stroke-linecap="round" stroke="#000000" fill="none" y1="14.76" y2="14.76" stroke-width="0.5" x1="39.95" x2="43.55"/>
        <line  stroke-linecap="round" stroke="#000000" fill="none" y1="21.96" y2="21.96" stroke-width="0.5" x1="36.35" x2="39.95"/>
        <line  gorn="0.1.24" stroke-linecap="round" stroke="#787878" id="connector4pin" fill="none" y1="36.36" y2="36.36" stroke-width="0.75" x1="0.35" x2="7.55"/>
        <polygon  gorn="0.1.25" id="connector4terminal" points="1.034,36.694 0,36.71 0,36.007 1.034,35.976 " fill="none"/>
        <g  transform="matrix(1 0 0 1 3.2268 35.6602)">
            <g >
                <text  fill="#787878" font-size="2" font-family="'DroidSans'">9</text>
            </g>
        </g>
        <line  gorn="0.1.27" stroke-linecap="round" stroke="#787878" id="connector3pin" fill="none" y1="29.16" y2="29.16" stroke-width="0.75" x1="50.75" x2="43.55"/>
        <polygon  gorn="0.1.28" id="connector3terminal" points="50.034,29.507 51.1,29.507 51.1,28.819 50.034,28.819 " fill="none"/>
        <g  transform="matrix(1 0 0 1 46.426 28.46)">
            <g >
                <text  fill="#787878" font-size="2" font-family="'DroidSans'">6</text>
            </g>
        </g>
        <line  gorn="0.1.30" stroke-linecap="round" stroke="#787878" id="connector5pin" fill="none" y1="36.36" y2="36.36" stroke-width="0.75" x1="50.75" x2="43.55"/>
        <polygon  gorn="0.1.31" id="connector5terminal" points="50.066,36.741 51.1,36.726 51.1,35.991 50.066,36.007 " fill="none"/>
        <g  transform="matrix(1 0 0 1 46.426 35.6602)">
            <g >
                <text  fill="#787878" font-size="2" font-family="'DroidSans'">10</text>
            </g>
        </g>
        <line  gorn="0.1.33" stroke-linecap="round" stroke="#787878" id="connector0pin" fill="none" y1="7.56" y2="7.56" stroke-width="0.75" x1="50.75" x2="43.55"/>
        <polygon  gorn="0.1.34" id="connector0terminal" points="50.05,7.882 51.1,7.913 51.1,7.226 50.05,7.179 " fill="none"/>
        <g  transform="matrix(1 0 0 1 46.426 6.8604)">
            <g >
                <text  fill="#787878" font-size="2" font-family="'DroidSans'">1</text>
            </g>
        </g>
        <line  gorn="0.1.36" stroke-linecap="round" stroke="#787878" id="connector1pin" fill="none" y1="7.56" y2="7.56" stroke-width="0.75" x1="0.35" x2="7.55"/>
        <polygon  gorn="0.1.37" id="connector1terminal" points="1.113,7.835 0.001,7.897 0.001,7.21 1.113,7.21 " fill="none"/>
        <g  transform="matrix(1 0 0 1 3.2268 6.8604)">
            <g >
                <text  fill="#787878" font-size="2" font-family="'DroidSans'">2</text>
            </g>
        </g>
        <line  gorn="0.1.39" stroke-linecap="round" stroke="#787878" id="connector2pin" fill="none" y1="14.76" y2="14.76" stroke-width="0.75" x1="50.75" x2="43.55"/>
        <polygon  gorn="0.1.40" id="connector2terminal" points="50.019,15.085 51.1,15.085 51.1,14.413 50.019,14.444 " fill="none"/>
        <g  transform="matrix(1 0 0 1 46.426 14.0596)">
            <g >
                <text  fill="#787878" font-size="2" font-family="'DroidSans'">5</text>
            </g>
        </g>
    </g>
</svg>
